<?xml version="1.0" encoding="iso-8859-1"?>
<!-- Generator: Adobe Illustrator 16.0.0, SVG Export Plug-In . SVG Version: 6.00 Build 0)  -->
<!DOCTYPE svg PUBLIC "-//W3C//DTD SVG 1.1//EN" "http://www.w3.org/Graphics/SVG/1.1/DTD/svg11.dtd">
<svg version="1.1" id="Capa_1" xmlns="http://www.w3.org/2000/svg" xmlns:xlink="http://www.w3.org/1999/xlink" x="0px" y="0px"
	 width="455.32px" height="455.32px" viewBox="0 0 455.32 455.32" style="enable-background:new 0 0 455.32 455.32;"
	 xml:space="preserve">
<g>
	<g>
		<path d="M227.66,0.001c-60.809,0-117.979,23.681-160.979,66.68C23.681,109.681,0,166.851,0,227.66
			c0,60.81,23.681,117.979,66.681,160.979s100.171,66.681,160.979,66.681c60.808,0,117.979-23.682,160.979-66.681
			S455.32,288.47,455.32,227.66c0-60.809-23.682-117.979-66.682-160.979S288.469,0.001,227.66,0.001z M370.961,370.962
			c-38.276,38.277-89.169,59.357-143.301,59.357c-54.133,0-105.023-21.08-143.302-59.357C46.08,332.683,25,281.792,25,227.66
			S46.08,122.637,84.358,84.358c38.279-38.277,89.169-59.357,143.302-59.357c54.132,0,105.023,21.08,143.301,59.357
			c38.279,38.279,59.359,89.17,59.359,143.302S409.24,332.683,370.961,370.962z"/>
		<path d="M306.406,126.711c-6.903,0-12.5,5.597-12.5,12.5v75.949H161.414v-75.949c0-6.903-5.597-12.5-12.5-12.5
			c-6.904,0-12.5,5.597-12.5,12.5v188.021c0,6.904,5.596,12.5,12.5,12.5c6.903,0,12.5-5.596,12.5-12.5V240.16h132.492v87.071
			c0,6.904,5.597,12.5,12.5,12.5s12.5-5.596,12.5-12.5V139.211C318.906,132.307,313.31,126.711,306.406,126.711z"/>
	</g>
</g>
<g>
</g>
<g>
</g>
<g>
</g>
<g>
</g>
<g>
</g>
<g>
</g>
<g>
</g>
<g>
</g>
<g>
</g>
<g>
</g>
<g>
</g>
<g>
</g>
<g>
</g>
<g>
</g>
<g>
</g>
</svg>
